<?xml version="1.0" standalone="no"?><!DOCTYPE svg PUBLIC "-//W3C//DTD SVG 1.1//EN" "http://www.w3.org/Graphics/SVG/1.1/DTD/svg11.dtd"><svg t="1669301500907" class="icon" viewBox="0 0 1024 1024" version="1.1" xmlns="http://www.w3.org/2000/svg" p-id="3287" xmlns:xlink="http://www.w3.org/1999/xlink" width="200" height="200"><path d="M358.6048 232.6528S92.2112 287.3856 135.9872 616.96s407.1424 312.576 513.6896 276.1728c106.5472-36.4544 319.6416-163.7888 222.6176-466.432-51.3536-156.0064-171.2128-197.888-228.3008-194.048-57.0368 3.7888-285.3888 0-285.3888 0z" fill="#ACACEF" p-id="3288"></path><path d="M396.9024 788.5824c-68.9152-39.2704-117.3504-106.6496-134.5536-184.064-32.9216-148.1728 19.6608-303.2576 19.6608-303.2576l26.8288-50.944c-74.8544 34.4064-204.288 129.1776-172.8 366.6944 43.776 329.6256 407.1424 312.576 513.6896 276.1728 45.4656-15.5648 110.3872-47.7184 162.2528-102.9632-167.7824 89.344-320 52.5312-415.0784-1.6384z" fill="#9E9AEA" p-id="3289"></path><path d="M511.8976 927.2832c-75.8272 0-165.0176-14.7456-240.2816-61.3888-85.3504-52.8896-136.0896-135.936-150.8352-246.9376C97.28 442.0608 162.0992 342.3232 220.6208 289.792c63.488-56.9856 131.9936-71.5776 134.8608-72.192 1.0752-0.2048 2.2016-0.3584 3.328-0.3072 2.304 0.0512 228.3008 3.7376 284.1088 0.0512 61.1328-4.096 172.8 37.7856 230.6048 169.7792 3.4304 7.7824-0.1536 16.8448-7.8848 20.224-7.7824 3.4304-16.8448-0.1536-20.224-7.8848-51.456-117.504-148.0704-154.88-200.448-151.4496-54.9888 3.6864-261.3248 0.4608-284.8256 0.0512-9.8816 2.4064-67.6352 17.9712-120.064 65.536-76.3392 69.2224-106.2912 170.6496-88.9344 301.4144 13.4656 101.4272 59.392 177.0496 136.5504 224.8704 125.184 77.568 297.5744 59.136 356.9664 38.8096 49.8688-17.0496 295.0144-116.8384 223.8976-408.4736-1.9968-8.2432 3.0208-16.5376 11.264-18.5856 8.2944-2.048 16.5376 3.072 18.5856 11.264 77.4144 317.5424-189.5424 426.24-243.8144 444.8256-29.44 10.0352-81.7664 19.5584-142.6944 19.5584z" fill="#000F04" p-id="3290"></path><path d="M465.2032 218.8288c-30.1056-28.2624-152.064-128.1024-238.4384 18.3296-8.5504 14.4896-4.8128 33.1264 8.9088 42.9056 31.0272 22.1696 72.4992 27.5968 93.8496 28.8768 5.5808 0.3584 8.704 6.5536 5.632 11.1616-13.568 20.6336-35.5328 69.0176 2.2528 130.6624 7.0144 11.4688 20.4288 17.5616 33.6384 15.0528 82.9952-15.7696 107.264-41.5744 126.976-79.0016 2.816-5.376 10.24-5.9904 14.08-1.3312 33.0752 40.1408 69.4784 69.4272 160.0512 48.4352 12.9536-3.0208 22.8864-13.7216 24.6784-26.88 7.4752-54.7328-7.3728-98.7648-33.7408-121.1904-4.864-4.1472-2.6624-11.9808 3.584-13.3632 22.7328-5.0176 42.2912-16.6912 55.4496-30.4128 11.52-12.032 11.4688-30.976 0.4096-43.4176-41.4208-46.592-146.3808-105.5744-244.5312 19.2512-3.1232 4.0448-9.0624 4.4032-12.8 0.9216z" fill="#BFE5BD" p-id="3291"></path><path d="M666.6752 272.5888c-136.1408-10.496-117.8112-80.7424-82.5856-127.1296-0.256 0.0512-0.512 0.1024-0.8192 0.1536-17.2544 4.3008-31.8976 10.24-44.288 16.9984-14.7968 8.6528-29.7984 20.5824-44.6976 36.5056-13.2608 16.2304-17.7664 29.3376-17.7664 29.3376s-1.536-3.0208-4.7104-7.2192c-2.304 0.1536-4.7104-0.6144-6.5536-2.3552a263.68 263.68 0 0 0-25.1904-20.8896c-4.5056-1.5872-9.4208-2.7648-14.848-3.328-103.3216 91.4432-168.3456 71.5264-200.704 47.2576-5.376 13.6192-1.1264 29.4912 11.1616 38.2464 31.0272 22.1696 72.4992 27.5968 93.8496 28.8768 5.5808 0.3584 8.704 6.5536 5.632 11.1616-7.6288 11.5712-17.8688 31.8464-18.7392 58.3168 54.4256-83.456 127.6928-90.2656 140.2368-73.6256 46.592 67.4304-74.6496 158.7712-74.752 158.8736 74.3424-15.9232 97.3312-41.0624 116.1728-76.8 2.816-5.376 10.24-5.9904 14.08-1.3312 22.0672 26.7264 45.6192 48.64 85.6064 54.0672 5.8368 0.2048 11.2128 0.6144 15.8208 1.28-54.272-15.2576-107.4688-81.7664-92.2624-127.4368s149.3504-20.0704 149.3504-20.0704c-2.4064-2.6624-4.9152-5.2224-7.5776-7.4752-4.9152-4.1984-2.6624-12.0832 3.584-13.4144z" fill="#A2DD9E" p-id="3292"></path><path d="M365.2096 481.8432c-16.384 0-32.1024-8.6016-40.9088-22.9376-7.5776-12.3392-13.4144-24.9856-17.2544-37.5808-1.5872-5.12-2.8672-10.3424-3.84-15.5136a15.36 15.36 0 1 1 30.208-5.632c0.768 3.9936 1.7408 8.0896 2.9696 12.0832 3.1232 10.1376 7.8848 20.4288 14.1312 30.6176 3.7376 6.0928 10.8544 9.3184 17.664 7.9872 81.152-15.4112 99.9936-40.2432 116.2752-71.0656a23.6032 23.6032 0 0 1 18.5856-12.544 23.9104 23.9104 0 0 1 20.9408 8.6016c29.0816 35.2768 60.0576 62.8736 144.7424 43.2128 6.8096-1.5872 12.032-7.2192 12.9536-13.9776 6.2976-45.9776-4.608-87.1424-28.4672-107.4176a22.85056 22.85056 0 0 1-7.3728-22.9888 23.10144 23.10144 0 0 1 17.6128-17.1008c18.2784-4.0448 35.6352-13.5168 47.6672-26.0608 5.8368-6.0928 5.8368-16.0256 0-22.5792-22.4256-25.1904-62.464-51.6096-107.4176-50.2784-40.3968 1.2288-78.592 24.3712-113.5104 68.8128a23.99232 23.99232 0 0 1-16.9984 9.0624 24.2176 24.2176 0 0 1-18.3296-6.4512c-15.7696-14.7968-71.5776-62.5152-128.1536-54.4256-33.024 4.7104-62.1568 28.0576-86.528 69.376-4.5568 7.7824-2.6112 17.4592 4.608 22.6304 27.7504 19.8144 65.6896 24.832 85.8112 26.0608 8.0384 0.512 15.2576 5.2736 18.8416 12.4416 3.584 7.168 3.072 15.8208-1.3312 22.528-3.584 5.4272-6.656 11.264-9.1136 17.3568a15.34464 15.34464 0 0 1-20.0192 8.448 15.34464 15.34464 0 0 1-8.448-20.0192c1.536-3.84 3.2768-7.5776 5.2224-11.264-24.6272-2.7648-60.3648-10.2912-88.832-30.6176-20.2752-14.4384-25.9072-41.6256-13.2096-63.232 29.3376-49.7664 65.8944-78.08 108.6464-84.1728 63.5904-9.0624 121.7024 33.9456 148.2752 57.6512 39.68-48.2304 84.1216-73.4208 132.1984-74.9056 55.3984-1.6896 104.2944 30.208 131.328 60.5696 16.4352 18.4832 16.0768 46.6944-0.768 64.256-13.4144 13.9776-30.9248 24.832-50.2784 31.232 25.2416 28.7232 36.096 74.3424 29.1328 125.2352-2.6624 19.3536-17.3056 35.328-36.4544 39.7824-95.1296 22.016-136.9088-9.1136-168.9088-46.0288C484.5568 440.7808 453.2736 465.92 373.9136 481.024c-2.9184 0.5632-5.8368 0.8192-8.704 0.8192z" fill="#000F04" p-id="3293"></path><path d="M512.0512 84.224S444.8768 160.3072 434.688 247.8592c-0.6144 12.032 18.3808 31.6928 57.088 17.7664 15.2064-5.6832 12.6976-26.0096 12.6976-42.496s32.9728-111.8208 49.4592-128.8704c-13.312-10.0352-41.8816-10.0352-41.8816-10.0352z" fill="#A2DD9E" p-id="3294"></path><path d="M466.944 285.7984c-15.9232 0-26.4704-5.5296-32.3584-9.8816-10.0864-7.4752-15.7184-18.2784-15.2064-28.8768 0-0.3072 0.0512-0.6656 0.1024-0.9728C430.08 154.8288 497.7152 77.312 500.5824 74.0352c2.9184-3.328 7.1168-5.1712 11.52-5.1712 5.632 0 34.56 0.6144 51.1488 13.1584 3.5328 2.6624 5.7344 6.7072 6.0416 11.0592s-1.2288 8.704-4.3008 11.8784c-13.056 13.4656-44.7488 103.7824-45.1584 118.2208 0 1.8944 0.0512 3.8912 0.0512 5.9392 0.3072 16.7424 0.768 42.0864-22.7328 50.8928-11.6224 4.1984-21.7088 5.7856-30.208 5.7856z m-16.7936-37.5296c0.4096 0.8704 1.7408 2.6624 4.7104 4.2496 4.2496 2.2528 14.08 5.0176 31.6928-1.3312 2.9696-1.1264 2.7648-14.3872 2.6112-21.504-0.0512-2.2016-0.1024-4.4032-0.1024-6.5536 0-15.6672 22.4768-85.4016 41.8304-121.5488-3.9424-0.768-8.0896-1.3312-11.9296-1.6384-14.6944 18.3808-60.416 80.2304-68.8128 148.3264zM670.6688 780.7488a15.36 15.36 0 0 1-7.1168-28.9792c68.7616-35.84 108.032-90.4704 116.736-162.304 1.024-8.3968 8.6528-14.4384 17.1008-13.4144 8.3968 1.024 14.4384 8.6528 13.4144 17.1008-6.8608 56.7296-35.5328 135.0144-133.0176 185.856-2.304 1.1776-4.7104 1.7408-7.1168 1.7408zM794.4192 534.3232c-7.5264 0-14.08-5.5296-15.1552-13.1584l-3.1744-21.9136a15.36 15.36 0 1 1 30.4128-4.4032l3.1744 21.9136a15.36 15.36 0 0 1-15.2576 17.5616z" fill="#000F04" p-id="3295"></path></svg>