<svg xmlns="http://www.w3.org/2000/svg" xmlns:xlink="http://www.w3.org/1999/xlink" fill="none" version="1.1" width="27.198486328125" height="27.198486328125" viewBox="0 0 27.198486328125 27.198486328125"><g style="mix-blend-mode:passthrough"><g><path d="M-996.0000297070002,-1117.0632889648437C-996.000030517578,-1112.1277389648437,-991.9989505175781,-1108.1266389648438,-987.0633805175781,-1108.1266389648438C-982.1278305175781,-1108.1266389648438,-978.1267305175782,-1112.1277389648437,-978.1267305175782,-1117.0632889648437C-978.1267305175782,-1121.9988689648437,-982.1278305175781,-1125.9999397754177,-987.0633805175781,-1125.9999389648435C-991.9989605175781,-1125.9999389648435,-996.0000313281561,-1121.9988589648437,-996.000030517578,-1117.0632789648437C-996.000030517578,-1117.0632789648437,-996.0000297070002,-1117.0632889648437,-996.0000297070002,-1117.0632889648437Z" fill="#8CF6FB" fill-opacity="1"/></g><g><path d="M-986.869109707,-1113.5663381542656C-986.869109707,-1113.5663381542656,-992.697379707,-1113.5663381542656,-992.697379707,-1113.5663381542656C-994.5235397069999,-1113.5663381542656,-996.000029707,-1115.0428381542656,-996.000029707,-1116.8690181542656C-996.000029707,-1116.8690181542656,-996.000029707,-1122.6972881542656,-996.000029707,-1122.6972881542656C-996.000029707,-1124.5234481542657,-994.5235397069999,-1125.9999381542657,-992.697349707,-1125.9999381542657C-992.697349707,-1125.9999381542657,-986.869079707,-1125.9999381542657,-986.869079707,-1125.9999381542657C-985.042929707,-1125.9999381542657,-983.566429707,-1124.5234481542657,-983.566429707,-1122.6972581542657C-983.566429707,-1122.6972581542657,-983.566429707,-1116.8689881542657,-983.566429707,-1116.8689881542657C-983.566429707,-1115.0428381542656,-985.042929707,-1113.5663381542656,-986.869109707,-1113.5663381542656C-986.869109707,-1113.5663381542656,-986.869109707,-1113.5663381542656,-986.869109707,-1113.5663381542656ZM-992.697349707,-1124.0571881542658C-993.4355997069999,-1124.0571881542658,-994.0572797069999,-1123.4355081542658,-994.0572797069999,-1122.6972581542657C-994.0572797069999,-1122.6972581542657,-994.0572797069999,-1116.8689881542657,-994.0572797069999,-1116.8689881542657C-994.0572797069999,-1116.1307581542658,-993.4355997069999,-1115.5091381542657,-992.697349707,-1115.5091381542657C-992.697349707,-1115.5091381542657,-986.869079707,-1115.5091381542657,-986.869079707,-1115.5091381542657C-986.130839707,-1115.5091381542657,-985.5091297069999,-1116.1307681542658,-985.5091297069999,-1116.8690181542656C-985.5091297069999,-1116.8690181542656,-985.5091297069999,-1122.6972881542656,-985.5091297069999,-1122.6972881542656C-985.5092297069999,-1123.4355081542658,-986.1308497069999,-1124.0571881542658,-986.869109707,-1124.0571881542658C-986.869109707,-1124.0571881542658,-992.697379707,-1124.0571881542658,-992.697379707,-1124.0571881542658C-992.697379707,-1124.0571881542658,-992.697349707,-1124.0571881542658,-992.697349707,-1124.0571881542658ZM-972.104229707,-1113.5663381542656C-972.104229707,-1113.5663381542656,-977.932429707,-1113.5663381542656,-977.932429707,-1113.5663381542656C-979.758629707,-1113.5663381542656,-981.2351297069999,-1115.0428381542656,-981.2351297069999,-1116.8690181542656C-981.2351297069999,-1116.8690181542656,-981.2351297069999,-1122.6972881542656,-981.2351297069999,-1122.6972881542656C-981.2351297069999,-1124.5234481542657,-979.758629707,-1125.9999381542657,-977.932429707,-1125.9999381542657C-977.932429707,-1125.9999381542657,-972.104129707,-1125.9999381542657,-972.104129707,-1125.9999381542657C-970.278029707,-1125.9999381542657,-968.801529707,-1124.5234481542657,-968.801529707,-1122.6972581542657C-968.801529707,-1122.6972581542657,-968.801529707,-1116.8689881542657,-968.801529707,-1116.8689881542657C-968.801529707,-1115.0428381542656,-970.278029707,-1113.5663381542656,-972.104229707,-1113.5663381542656C-972.104229707,-1113.5663381542656,-972.104229707,-1113.5663381542656,-972.104229707,-1113.5663381542656ZM-977.932429707,-1124.0571881542658C-978.670729707,-1124.0571881542658,-979.2923297069999,-1123.4355081542658,-979.2923297069999,-1122.6972581542657C-979.2923297069999,-1122.6972581542657,-979.2923297069999,-1116.8689881542657,-979.2923297069999,-1116.8689881542657C-979.2923297069999,-1116.1307481542658,-978.670629707,-1115.5090381542657,-977.932429707,-1115.5090381542657C-977.932429707,-1115.5090381542657,-972.104129707,-1115.5090381542657,-972.104129707,-1115.5090381542657C-971.365929707,-1115.5090381542657,-970.7442297069999,-1116.1307481542658,-970.7442297069999,-1116.8689881542657C-970.7442297069999,-1116.8689881542657,-970.7442297069999,-1122.6972581542657,-970.7442297069999,-1122.6972581542657C-970.7442297069999,-1123.4355081542658,-971.365929707,-1124.0571881542658,-972.104229707,-1124.0571881542658C-972.104229707,-1124.0571881542658,-977.932429707,-1124.0571881542658,-977.932429707,-1124.0571881542658C-977.932429707,-1124.0571881542658,-977.932429707,-1124.0571881542658,-977.932429707,-1124.0571881542658ZM-986.869109707,-1098.8014381542657C-986.869109707,-1098.8014381542657,-992.697379707,-1098.8014381542657,-992.697379707,-1098.8014381542657C-994.5235397069999,-1098.8014381542657,-996.000029707,-1100.2779381542657,-996.000029707,-1102.1041381542657C-996.000029707,-1102.1041381542657,-996.000029707,-1107.9323381542656,-996.000029707,-1107.9323381542656C-996.000029707,-1109.7585381542658,-994.5235397069999,-1111.2350381542658,-992.697349707,-1111.2350381542658C-992.697349707,-1111.2350381542658,-986.869079707,-1111.2350381542658,-986.869079707,-1111.2350381542658C-985.042929707,-1111.2350381542658,-983.566429707,-1109.7585381542658,-983.566429707,-1107.9323381542656C-983.566429707,-1107.9323381542656,-983.566429707,-1102.1040381542657,-983.566429707,-1102.1040381542657C-983.566429707,-1100.2779381542657,-985.042929707,-1098.8014381542657,-986.869079707,-1098.8014381542657C-986.869079707,-1098.8014381542657,-986.869109707,-1098.8014381542657,-986.869109707,-1098.8014381542657ZM-992.697379707,-1109.2922381542658C-993.4355997069999,-1109.2922381542658,-994.0572797069999,-1108.6706381542656,-994.0572797069999,-1107.9323381542656C-994.0572797069999,-1107.9323381542656,-994.0572797069999,-1102.1040381542657,-994.0572797069999,-1102.1040381542657C-994.0572797069999,-1101.3658381542657,-993.4355997069999,-1100.7441381542658,-992.697349707,-1100.7441381542658C-992.697349707,-1100.7441381542658,-986.869079707,-1100.7441381542658,-986.869079707,-1100.7441381542658C-986.130839707,-1100.7441381542658,-985.5091297069999,-1101.3658381542657,-985.5091297069999,-1102.1041381542657C-985.5091297069999,-1102.1041381542657,-985.5091297069999,-1107.9323381542656,-985.5091297069999,-1107.9323381542656C-985.5091297069999,-1108.6706381542656,-986.130839707,-1109.2923381542657,-986.869079707,-1109.2923381542657C-986.869079707,-1109.2923381542657,-992.697349707,-1109.2923381542657,-992.697349707,-1109.2923381542657C-992.697349707,-1109.2923381542657,-992.697379707,-1109.2922381542658,-992.697379707,-1109.2922381542658Z" fill="#3C2DCB" fill-opacity="1"/></g><g><path d="M-975.018307421875,-1098.8014158691406C-978.437497421875,-1098.8014158691406,-981.235107421875,-1101.5989658691406,-981.235107421875,-1105.0182158691407C-981.235107421875,-1108.4374058691405,-978.437497421875,-1111.2350158691406,-975.018307421875,-1111.2350158691406C-971.599057421875,-1111.2350158691406,-968.801507421875,-1108.4374058691405,-968.801507421875,-1105.0182158691407C-968.801507421875,-1101.5989658691406,-971.599057421875,-1098.8014158691406,-975.018307421875,-1098.8014158691406C-975.018307421875,-1098.8014158691406,-975.018307421875,-1098.8014158691406,-975.018307421875,-1098.8014158691406ZM-975.018307421875,-1109.2922658691407C-977.388487421875,-1109.2922658691407,-979.292357421875,-1107.3883958691406,-979.292357421875,-1105.0182158691407C-979.292357421875,-1102.6481058691406,-977.388487421875,-1100.7442158691406,-975.018307421875,-1100.7442158691406C-972.648197421875,-1100.7442158691406,-970.744307421875,-1102.6481058691406,-970.744307421875,-1105.0182158691407C-970.744307421875,-1107.3883958691406,-972.648197421875,-1109.2922658691407,-975.018307421875,-1109.2922658691407C-975.018307421875,-1109.2922658691407,-975.018307421875,-1109.2922658691407,-975.018307421875,-1109.2922658691407Z" fill="#D098FF" fill-opacity="1"/></g></g></svg>