<svg xmlns="http://www.w3.org/2000/svg" xmlns:xlink="http://www.w3.org/1999/xlink" fill="none" version="1.1" width="32" height="26.70458984375" viewBox="0 0 32 26.70458984375"><g style="mix-blend-mode:passthrough"><g><path d="M-993.9483642578125,-1105.1038833526611C-993.9483642578125,-1105.1038833526611,-989.8644642578125,-1105.1038833526611,-989.8644642578125,-1105.1038833526611C-989.8644642578125,-1105.1038833526611,-989.8644642578125,-1099.994583352661,-989.8644642578125,-1099.994583352661C-989.8644642578125,-1099.994583352661,-993.9483642578125,-1099.994583352661,-993.9483642578125,-1099.994583352661C-993.9483642578125,-1099.994583352661,-993.9483642578125,-1105.1038833526611,-993.9483642578125,-1105.1038833526611C-993.9483642578125,-1105.1038833526611,-993.9483642578125,-1105.1038833526611,-993.9483642578125,-1105.1038833526611ZM-985.7805542578125,-1113.271673352661C-985.7805542578125,-1113.271673352661,-981.6966642578125,-1113.271673352661,-981.6966642578125,-1113.271673352661C-981.6966642578125,-1113.271673352661,-981.6966642578125,-1099.994583352661,-981.6966642578125,-1099.994583352661C-981.6966642578125,-1099.994583352661,-985.7805542578125,-1099.994583352661,-985.7805542578125,-1099.994583352661C-985.7805542578125,-1099.994583352661,-985.7805542578125,-1113.271673352661,-985.7805542578125,-1113.271673352661C-985.7805542578125,-1113.271673352661,-985.7805542578125,-1113.271673352661,-985.7805542578125,-1113.271673352661ZM-978.6204642578125,-1109.1877733526612C-978.6204642578125,-1109.1877733526612,-974.5365642578125,-1109.1877733526612,-974.5365642578125,-1109.1877733526612C-974.5365642578125,-1109.1877733526612,-974.5365642578125,-1099.994583352661,-974.5365642578125,-1099.994583352661C-974.5365642578125,-1099.994583352661,-978.6204642578125,-1099.994583352661,-978.6204642578125,-1099.994583352661C-978.6204642578125,-1099.994583352661,-978.6204642578125,-1109.1877733526612,-978.6204642578125,-1109.1877733526612C-978.6204642578125,-1109.1877733526612,-978.6204642578125,-1109.1877733526612,-978.6204642578125,-1109.1877733526612ZM-969.4449642578124,-1118.3809833526611C-969.4449642578124,-1118.3809833526611,-965.3610642578125,-1118.3809833526611,-965.3610642578125,-1118.3809833526611C-965.3610642578125,-1118.3809833526611,-965.3610642578125,-1101.019983352661,-965.3610642578125,-1101.019983352661C-965.3610642578125,-1101.019983352661,-969.4449642578124,-1101.019983352661,-969.4449642578124,-1101.019983352661C-969.4449642578124,-1101.019983352661,-969.4449642578124,-1118.3809833526611,-969.4449642578124,-1118.3809833526611C-969.4449642578124,-1118.3809833526611,-969.4449642578124,-1118.3809833526611,-969.4449642578124,-1118.3809833526611Z" fill="#CAE4FF" fill-opacity="1"/></g><g><path d="M-991.8630804244614,-1108.5417C-990.6785704244613,-1108.5417,-989.7062104244613,-1109.5141,-989.7238904244614,-1110.6986C-989.7238904244614,-1110.9815,-989.7769304244614,-1111.2467,-989.8830004244613,-1111.5119C-989.8830004244613,-1111.5119,-984.7737004244614,-1116.62117,-984.7737004244614,-1116.62117C-984.5085104244614,-1116.51511,-984.2433304244614,-1116.46207,-983.9604704244614,-1116.46207C-983.4477704244614,-1116.46207,-982.9704704244614,-1116.65653,-982.5814704244614,-1116.99243C-982.5814704244614,-1116.99243,-978.1616704244614,-1114.7825,-978.1616704244614,-1114.7825C-978.1616704244614,-1114.7295,-978.1970704244613,-1114.6941,-978.1970704244613,-1114.6411C-978.1970704244613,-1113.4566,-977.2423704244613,-1112.4842,-976.0578704244614,-1112.4842C-974.8733704244613,-1112.4842,-973.9009704244613,-1113.4389,-973.9009704244613,-1114.6234C-973.9009704244613,-1114.9063,-973.9539704244613,-1115.1891,-974.0600704244614,-1115.4543C-974.0600704244614,-1115.4543,-968.9154704244613,-1121.88959,-968.9154704244613,-1121.88959C-967.8193704244613,-1121.4476,-966.5640704244613,-1121.97798,-966.1221704244614,-1123.0741C-965.8038704244614,-1123.86965,-965.9806704244613,-1124.78898,-966.5994704244614,-1125.39007C-967.4480704244613,-1126.20331,-968.7916704244614,-1126.20331,-969.6402704244614,-1125.39007C-970.2590704244614,-1124.77129,-970.4358704244613,-1123.85198,-970.0999704244614,-1123.03873C-970.0999704244614,-1123.03873,-975.2445704244614,-1116.6035,-975.2445704244614,-1116.6035C-975.9694704244614,-1116.86868,-976.8003704244613,-1116.74492,-977.4014704244614,-1116.23223C-977.4014704244614,-1116.23223,-981.8389704244614,-1118.44213,-981.8389704244614,-1118.44213C-981.8389704244614,-1118.49518,-981.8035704244613,-1118.53053,-981.8035704244613,-1118.58356C-981.8035704244613,-1119.14931,-982.0334704244614,-1119.69736,-982.4223704244614,-1120.10398C-983.2709704244613,-1120.91724,-984.6145904244613,-1120.91724,-985.4631904244613,-1120.10398C-986.0642804244613,-1119.4852,-986.2587604244613,-1118.56587,-985.9228604244614,-1117.77031C-985.9228604244614,-1117.77031,-991.0498304244613,-1112.6433,-991.0498304244613,-1112.6433C-991.8454004244613,-1112.9616,-992.7470404244614,-1112.7671,-993.3834844244614,-1112.1837C-994.2320934244614,-1111.3528,-994.2320934244614,-1109.9915,-993.4011764244614,-1109.1429C-992.9768704244614,-1108.7539,-992.4288104244614,-1108.5241,-991.8630704244614,-1108.5417C-991.8630704244614,-1108.5417,-991.8630804244614,-1108.5417,-991.8630804244614,-1108.5417ZM-968.4557704244613,-1124.22324C-968.2612704244614,-1124.40003,-967.9430704244613,-1124.40003,-967.7662704244614,-1124.18788C-967.5894704244614,-1123.99342,-967.5894704244614,-1123.71054,-967.7662704244614,-1123.51607C-967.9607704244613,-1123.33928,-968.2612704244614,-1123.33928,-968.4557704244613,-1123.51607C-968.6502704244614,-1123.72823,-968.6502704244614,-1124.02876,-968.4557704244613,-1124.22324C-968.4557704244613,-1124.22324,-968.4557704244613,-1124.22324,-968.4557704244613,-1124.22324ZM-976.3760704244613,-1114.9947C-976.1815704244614,-1115.1891,-975.8810704244613,-1115.1891,-975.6865704244614,-1114.9947C-975.4920704244614,-1114.8002,-975.4920704244614,-1114.4997,-975.6865704244614,-1114.3052C-975.8810704244613,-1114.1284,-976.1815704244614,-1114.1284,-976.3760704244613,-1114.3052C-976.5705704244614,-1114.4997,-976.5705704244614,-1114.8002,-976.3760704244613,-1114.9947C-976.3760704244613,-1114.9947,-976.3760704244613,-1114.9947,-976.3760704244613,-1114.9947ZM-984.2963604244613,-1118.95484C-984.1019004244614,-1119.14931,-983.8013704244613,-1119.14931,-983.6068704244614,-1118.95484C-983.4123704244614,-1118.76036,-983.4123704244614,-1118.45981,-983.6068704244614,-1118.26535C-983.8013704244613,-1118.08855,-984.1019004244614,-1118.08855,-984.2963604244613,-1118.26535C-984.4554704244614,-1118.44213,-984.4554704244614,-1118.76036,-984.2963604244613,-1118.95484C-984.2963604244613,-1118.95484,-984.2963604244613,-1118.95484,-984.2963604244613,-1118.95484ZM-992.1989804244614,-1111.0345C-992.0045204244614,-1111.229,-991.7039604244613,-1111.229,-991.5094904244613,-1111.0345C-991.3150304244614,-1110.8401,-991.3150304244614,-1110.5218,-991.5094904244613,-1110.345C-991.7039604244613,-1110.1682,-992.0045204244614,-1110.1682,-992.1989804244614,-1110.345C-992.3580904244614,-1110.5218,-992.3227404244614,-1110.8224,-992.1989804244614,-1111.0345C-992.1989804244614,-1111.0345,-992.1989804244614,-1111.0345,-992.1989804244614,-1111.0345Z" fill="#0972E7" fill-opacity="1"/></g><g><path d="M-964.8138190734863,-1100.9573765899659C-964.8138190734863,-1100.9573765899659,-965.3089190734863,-1100.9573765899659,-965.3089190734863,-1100.9573765899659C-965.3089190734863,-1100.9573765899659,-965.3089190734863,-1118.6012435899659,-965.3089190734863,-1118.6012435899659C-965.3089190734863,-1119.0608995899659,-965.6801190734864,-1119.4321765899658,-966.1398190734864,-1119.4321765899658C-966.1398190734864,-1119.4321765899658,-970.0999190734864,-1119.4321765899658,-970.0999190734864,-1119.4321765899658C-970.5596190734864,-1119.4321765899658,-970.9309190734863,-1119.0608995899659,-970.9309190734863,-1118.6012435899659C-970.9309190734863,-1118.6012435899659,-970.9309190734863,-1100.9573765899659,-970.9309190734863,-1100.9573765899659C-970.9309190734863,-1100.9573765899659,-973.2291190734863,-1100.9573765899659,-973.2291190734863,-1100.9573765899659C-973.2291190734863,-1100.9573765899659,-973.2291190734863,-1109.3726765899657,-973.2291190734863,-1109.3726765899657C-973.2291190734863,-1109.832356589966,-973.6004190734864,-1110.2035965899659,-974.0601190734864,-1110.2035965899659C-974.0601190734864,-1110.2035965899659,-978.0202190734864,-1110.2035965899659,-978.0202190734864,-1110.2035965899659C-978.4799190734864,-1110.2035965899659,-978.8511190734863,-1109.832356589966,-978.8511190734863,-1109.3726765899657C-978.8511190734863,-1109.3726765899657,-978.8511190734863,-1100.9573765899659,-978.8511190734863,-1100.9573765899659C-978.8511190734863,-1100.9573765899659,-981.1318190734863,-1100.9573765899659,-981.1318190734863,-1100.9573765899659C-981.1318190734863,-1100.9573765899659,-981.1318190734863,-1113.315146589966,-981.1318190734863,-1113.315146589966C-981.1318190734863,-1113.7748265899659,-981.5030190734864,-1114.1460765899658,-981.9627190734864,-1114.1460765899658C-981.9627190734864,-1114.1460765899658,-985.9228190734864,-1114.1460765899658,-985.9228190734864,-1114.1460765899658C-986.3825190734864,-1114.1460765899658,-986.7537790734864,-1113.7748265899659,-986.7537790734864,-1113.315146589966C-986.7537790734864,-1113.315146589966,-986.7537790734864,-1100.9573765899659,-986.7537790734864,-1100.9573765899659C-986.7537790734864,-1100.9573765899659,-989.0520790734863,-1100.9573765899659,-989.0520790734863,-1100.9573765899659C-989.0520790734863,-1100.9573765899659,-989.0520790734863,-1105.4124765899658,-989.0520790734863,-1105.4124765899658C-989.0520790734863,-1105.8721765899659,-989.4233390734863,-1106.243476589966,-989.8829990734863,-1106.243476589966C-989.8829990734863,-1106.243476589966,-993.8431490734863,-1106.243476589966,-993.8431490734863,-1106.243476589966C-994.3028090734863,-1106.243476589966,-994.6740790734864,-1105.8721765899659,-994.6740790734864,-1105.4124765899658C-994.6740790734864,-1105.4124765899658,-994.6740790734864,-1100.9573765899659,-994.6740790734864,-1100.9573765899659C-994.6740790734864,-1100.9573765899659,-995.1690940734863,-1100.9573765899659,-995.1690940734863,-1100.9573765899659C-995.6287540734863,-1100.9573765899659,-996.0000190734863,-1100.5860765899658,-996.0000190734863,-1100.126476589966C-996.0000190734863,-1099.6667765899658,-995.6287540734863,-1099.2954765899658,-995.1690940734863,-1099.2954765899658C-995.1690940734863,-1099.2954765899658,-964.8315190734863,-1099.2954765899658,-964.8315190734863,-1099.2954765899658C-964.3718190734863,-1099.2954765899658,-964.0006190734863,-1099.6667765899658,-964.0006190734863,-1100.126476589966C-963.9829190734863,-1100.5860765899658,-964.3542190734863,-1100.9573765899659,-964.8138190734863,-1100.9573765899659C-964.8138190734863,-1100.9573765899659,-964.8138190734863,-1100.9573765899659,-964.8138190734863,-1100.9573765899659ZM-993.0122290734863,-1100.9573765899659C-993.0122290734863,-1100.9573765899659,-993.0122290734863,-1104.5815765899658,-993.0122290734863,-1104.5815765899658C-993.0122290734863,-1104.5815765899658,-990.7139290734864,-1104.5815765899658,-990.7139290734864,-1104.5815765899658C-990.7139290734864,-1104.5815765899658,-990.7139290734864,-1100.9573765899659,-990.7139290734864,-1100.9573765899659C-990.7139290734864,-1100.9573765899659,-993.0122290734863,-1100.9573765899659,-993.0122290734863,-1100.9573765899659C-993.0122290734863,-1100.9573765899659,-993.0122290734863,-1100.9573765899659,-993.0122290734863,-1100.9573765899659ZM-985.0919190734863,-1100.9573765899659C-985.0919190734863,-1100.9573765899659,-985.0919190734863,-1112.5019065899658,-985.0919190734863,-1112.5019065899658C-985.0919190734863,-1112.5019065899658,-982.7936190734863,-1112.5019065899658,-982.7936190734863,-1112.5019065899658C-982.7936190734863,-1112.5019065899658,-982.7936190734863,-1100.9573765899659,-982.7936190734863,-1100.9573765899659C-982.7936190734863,-1100.9573765899659,-985.0919190734863,-1100.9573765899659,-985.0919190734863,-1100.9573765899659C-985.0919190734863,-1100.9573765899659,-985.0919190734863,-1100.9573765899659,-985.0919190734863,-1100.9573765899659ZM-977.1716190734863,-1100.9573765899659C-977.1716190734863,-1100.9573765899659,-977.1716190734863,-1108.5417765899658,-977.1716190734863,-1108.5417765899658C-977.1716190734863,-1108.5417765899658,-974.8733190734863,-1108.5417765899658,-974.8733190734863,-1108.5417765899658C-974.8733190734863,-1108.5417765899658,-974.8733190734863,-1100.9573765899659,-974.8733190734863,-1100.9573765899659C-974.8733190734863,-1100.9573765899659,-977.1716190734863,-1100.9573765899659,-977.1716190734863,-1100.9573765899659C-977.1716190734863,-1100.9573765899659,-977.1716190734863,-1100.9573765899659,-977.1716190734863,-1100.9573765899659ZM-969.2513190734863,-1100.9573765899659C-969.2513190734863,-1100.9573765899659,-969.2513190734863,-1117.770306589966,-969.2513190734863,-1117.770306589966C-969.2513190734863,-1117.770306589966,-966.9530190734863,-1117.770306589966,-966.9530190734863,-1117.770306589966C-966.9530190734863,-1117.770306589966,-966.9530190734863,-1100.9573765899659,-966.9530190734863,-1100.9573765899659C-966.9530190734863,-1100.9573765899659,-969.2513190734863,-1100.9573765899659,-969.2513190734863,-1100.9573765899659C-969.2513190734863,-1100.9573765899659,-969.2513190734863,-1100.9573765899659,-969.2513190734863,-1100.9573765899659Z" fill="#0972E7" fill-opacity="1"/></g></g></svg>