<svg xmlns="http://www.w3.org/2000/svg" xmlns:xlink="http://www.w3.org/1999/xlink" fill="none" version="1.1" width="34.95794677734375" height="34.9578857421875" viewBox="0 0 34.95794677734375 34.9578857421875"><g style="mix-blend-mode:passthrough"><g><path d="" fill="#909090" fill-opacity="0"/></g><g><path d="M-991.6302601391601,-1111.4341583251953C-991.6302601391601,-1111.4341583251953,-965.4118301391602,-1111.4341583251953,-965.4118301391602,-1111.4341583251953C-964.4407301391601,-1111.4341583251953,-963.9552301391601,-1110.9486233251953,-963.9552301391601,-1109.9775883251953C-963.9552301391601,-1109.9775883251953,-963.9552301391601,-1095.4117583251953,-963.9552301391601,-1095.4117583251953C-963.9552301391601,-1094.4407583251952,-964.4407301391601,-1093.9551583251953,-965.4118301391602,-1093.9551583251953C-965.4118301391602,-1093.9551583251953,-991.6302601391601,-1093.9551583251953,-991.6302601391601,-1093.9551583251953C-992.6013111391602,-1093.9551583251953,-993.0868301391602,-1094.4407583251952,-993.0868301391602,-1095.4117583251953C-993.0868301391602,-1095.4117583251953,-993.0868301391602,-1109.9775883251953,-993.0868301391602,-1109.9775883251953C-993.0868301391602,-1110.9486233251953,-992.6013111391602,-1111.4341583251953,-991.6302601391601,-1111.4341583251953C-991.6302601391601,-1111.4341583251953,-991.6302601391601,-1111.4341583251953,-991.6302601391601,-1111.4341583251953Z" fill="#4A90E2" fill-opacity="0.6000000238418579"/></g><g><path d="M-978.0825958706665,-1124.04233589917C-978.0825958706665,-1124.04233589917,-969.1698158706665,-1113.8564528991699,-969.1698158706665,-1113.8564528991699C-969.0195158706665,-1113.68425289917,-968.9837158706665,-1113.4399528991698,-969.0785158706665,-1113.23185289917C-969.1733158706666,-1113.02385289917,-969.3810158706665,-1112.89045289917,-969.6096158706665,-1112.89075289917C-969.6096158706665,-1112.89075289917,-987.4323728706665,-1112.89075289917,-987.4323728706665,-1112.89075289917C-987.6610108706665,-1112.89045289917,-987.8687128706665,-1113.02385289917,-987.9634856706665,-1113.23185289917C-988.0582732706665,-1113.4399528991698,-988.0225829506666,-1113.68425289917,-987.8722528706666,-1113.8564528991699C-987.8722528706666,-1113.8564528991699,-978.9580058706665,-1124.04233589917,-978.9580058706665,-1124.04233589917C-978.8473658706665,-1124.16874689917,-978.6875658706665,-1124.24125289917,-978.5195758706665,-1124.24125289917C-978.3515958706665,-1124.24125289917,-978.1917758706666,-1124.16874689917,-978.0811358706665,-1124.04233589917C-978.0811358706665,-1124.04233589917,-978.0825958706665,-1124.04233589917,-978.0825958706665,-1124.04233589917Z" fill="#4A90E2" fill-opacity="1"/></g><g><path d="M-982.8907775878906,-1112.8907623291016C-982.8907775878906,-1112.8907623291016,-974.1512775878906,-1112.8907623291016,-974.1512775878906,-1112.8907623291016C-974.1512775878906,-1112.8907623291016,-974.1512775878906,-1101.2381623291017,-974.1512775878906,-1101.2381623291017C-974.1512775878906,-1101.2381623291017,-982.8907775878906,-1101.2381623291017,-982.8907775878906,-1101.2381623291017C-982.8907775878906,-1101.2381623291017,-982.8907775878906,-1112.8907623291016,-982.8907775878906,-1112.8907623291016C-982.8907775878906,-1112.8907623291016,-982.8907775878906,-1112.8907623291016,-982.8907775878906,-1112.8907623291016ZM-982.8907775878906,-1099.7814623291015C-982.8907775878906,-1099.7814623291015,-974.1512775878906,-1099.7814623291015,-974.1512775878906,-1099.7814623291015C-974.1512775878906,-1099.7814623291015,-974.1512775878906,-1098.3249623291015,-974.1512775878906,-1098.3249623291015C-974.1512775878906,-1098.3249623291015,-982.8907775878906,-1098.3249623291015,-982.8907775878906,-1098.3249623291015C-982.8907775878906,-1098.3249623291015,-982.8907775878906,-1099.7814623291015,-982.8907775878906,-1099.7814623291015C-982.8907775878906,-1099.7814623291015,-982.8907775878906,-1099.7814623291015,-982.8907775878906,-1099.7814623291015Z" fill="#4A90E2" fill-opacity="1"/></g><g><path d="M-978.2296752929688,-1103.8599740966797C-978.2296752929688,-1103.0555240966796,-977.5775752929687,-1102.4034240966796,-976.7731352929687,-1102.4034240966796C-975.9686252929688,-1102.4034240966796,-975.3164652929687,-1103.0555240966796,-975.3164652929687,-1103.8599740966797C-975.3164652929687,-1104.6644130966797,-975.9686252929688,-1105.3165740966797,-976.7731352929687,-1105.3165740966797C-977.5775752929687,-1105.3165740966797,-978.2296752929688,-1104.6644130966797,-978.2296752929688,-1103.8599740966797C-978.2296752929688,-1103.8599740966797,-978.2296752929688,-1103.8599740966797,-978.2296752929688,-1103.8599740966797Z" fill="#E02020" fill-opacity="1"/></g></g></svg>