<svg xmlns="http://www.w3.org/2000/svg" xmlns:xlink="http://www.w3.org/1999/xlink" fill="none" version="1.1" width="33.666748046875" height="33.666748046875" viewBox="0 0 33.666748046875 33.666748046875"><g style="mix-blend-mode:passthrough"><g><path d="M-982.1725463866969,-1103.1546969042968C-982.1725463866969,-1098.174276904297,-978.1351269042968,-1094.1367769042968,-973.1546969042969,-1094.1367769042968C-968.1742769042969,-1094.1367769042968,-964.1367769042969,-1098.174276904297,-964.1367769042969,-1103.1546969042968C-964.1367769042969,-1108.1351269042968,-968.1742769042969,-1112.172546386697,-973.1546969042969,-1112.1725769042969C-978.1351269042968,-1112.1725769042969,-982.1725463866969,-1108.1351269042968,-982.1725769042969,-1103.1546969042968C-982.1725769042969,-1103.1546969042968,-982.1725463866969,-1103.1546969042968,-982.1725463866969,-1103.1546969042968Z" fill="#EEFAF0" fill-opacity="1"/></g><g><path d="M-963.8362,-1098.9464C-963.8362,-1098.9464,-965.9404,-1098.9464,-965.9404,-1098.9464C-965.9404,-1098.9464,-965.9404,-1110.974,-965.9404,-1110.974C-965.9404,-1117.68852,-971.013,-1123.27585,-977.5134,-1124.09497C-977.5134,-1124.09497,-977.5134,-1124.34673,-977.5134,-1124.34673C-977.5134,-1125.256027,-978.2573,-1126,-979.1666,-1126C-980.0759,-1126,-980.8199,-1125.256027,-980.8199,-1124.34673C-980.8199,-1124.34673,-980.8199,-1124.09497,-980.8199,-1124.09497C-987.32029,-1123.27585,-992.39285,-1117.68852,-992.39285,-1110.974C-992.39285,-1110.974,-992.39285,-1098.9464,-992.39285,-1098.9464C-992.39285,-1098.9464,-994.49702,-1098.9464,-994.49702,-1098.9464C-995.323662,-1098.9464,-996,-1098.27,-996,-1097.4434C-996,-1096.6167,-995.323662,-1095.9404,-994.49702,-1095.9404C-994.49702,-1095.9404,-982.9203,-1095.9404,-982.9203,-1095.9404C-982.8414,-1093.9377,-981.1881,-1092.3333,-979.1666,-1092.3333C-977.1451,-1092.3333,-975.4918,-1093.9377,-975.4129,-1095.9404C-975.4129,-1095.9404,-963.8362,-1095.9404,-963.8362,-1095.9404C-963.0096,-1095.9404,-962.3333,-1096.6167,-962.3333,-1097.4434C-962.3333,-1098.27,-963.0096,-1098.9464,-963.8362,-1098.9464C-963.8362,-1098.9464,-963.8362,-1098.9464,-963.8362,-1098.9464ZM-979.1666,-1094.738C-979.8618,-1094.738,-980.4366,-1095.2641,-980.5118,-1095.9404C-980.5118,-1095.9404,-977.8252,-1095.9404,-977.8252,-1095.9404C-977.8966,-1095.2641,-978.4715,-1094.738,-979.1666,-1094.738C-979.1666,-1094.738,-979.1666,-1094.738,-979.1666,-1094.738ZM-968.9464,-1098.9501C-968.9464,-1098.9501,-989.38689,-1098.9501,-989.38689,-1098.9501C-989.38689,-1098.9501,-989.38689,-1110.974,-989.38689,-1110.974C-989.38689,-1112.3454,-989.11635,-1113.6793,-988.58279,-1114.9343C-988.06427,-1116.15173,-987.3240499999999,-1117.24514,-986.38093,-1118.18826C-985.4378,-1119.13138,-984.3444,-1119.8716,-983.127,-1120.39013C-981.872,-1120.92368,-980.5381,-1121.19422,-979.1666,-1121.19422C-977.7952,-1121.19422,-976.4613,-1120.92368,-975.2063,-1120.39013C-973.9889000000001,-1119.8716,-972.8954,-1119.13138,-971.9523,-1118.18826C-971.0092,-1117.24514,-970.269,-1116.15173,-969.7505,-1114.9343C-969.2169,-1113.6793,-968.9464,-1112.3454,-968.9464,-1110.974C-968.9464,-1110.974,-968.9464,-1098.9501,-968.9464,-1098.9501C-968.9464,-1098.9501,-968.9464,-1098.9501,-968.9464,-1098.9501Z" fill="#1CC6A1" fill-opacity="1"/></g><g><path d="M-972.854127109375,-1111.2707824707031C-973.598083109375,-1111.2707824707031,-974.206787109375,-1110.6620784707031,-974.206787109375,-1109.9180924707032C-974.206787109375,-1109.9180924707032,-974.206787109375,-1103.605562470703,-974.206787109375,-1103.605562470703C-974.206787109375,-1102.861602470703,-973.598083109375,-1102.252902470703,-972.854127109375,-1102.252902470703C-972.110107109375,-1102.252902470703,-971.501407109375,-1102.861602470703,-971.501407109375,-1103.605562470703C-971.501407109375,-1103.605562470703,-971.501407109375,-1109.9180924707032,-971.501407109375,-1109.9180924707032C-971.501407109375,-1110.6620784707031,-972.110107109375,-1111.2707824707031,-972.854127109375,-1111.2707824707031C-972.854127109375,-1111.2707824707031,-972.854127109375,-1111.2707824707031,-972.854127109375,-1111.2707824707031Z" fill="#08B28A" fill-opacity="1"/></g></g></svg>